<svg id="Layer_1" data-name="Layer 1" xmlns="http://www.w3.org/2000/svg" viewBox="0 0 313.82 174.25"><defs><style>.cls-1{fill:#f48020}</style></defs><path class="cls-1" d="M44.66 139s-10.18 0-20.35-.1c-5.09 0-10.18-.06-14-.1l-4.64-.05c-1.69 0-5.65-.1-5.65-4 0-15.71 0-48.4 30.48-54.85 15.06-3.19 22.9 1.69 27.5 6 6.46-18.49 21.51-28.61 42.78-28.61a46.56 46.56 0 0118.85 4A69.45 69.45 0 01258 69.44v1.16a46.32 46.32 0 0155.8 45.31c0 2.47-.33 16-1.2 19.75a4 4 0 01-3.86 3.07s-17.22 0-30.57.06a4 4 0 010-7.94h27.09c.37-4.45.62-11.87.62-14.89A38.36 38.36 0 00255 79.65a4 4 0 01-5.24-4.15c.19-2 .3-4 .3-6.06a61.51 61.51 0 00-123-1.73A4 4 0 01121 71a38.55 38.55 0 00-20.28-5.74c-19.25 0-31.45 8.88-36.25 26.4a5.77 5.77 0 01-4.18 4.06A5.68 5.68 0 0154.81 94c-3.64-3.93-8.62-9.32-22.68-6.34C11.22 92.1 8.26 111.73 8 130.88c7.47.09 24.61.17 36.7.22a4 4 0 010 7.94z"/><path class="cls-1" d="M110.19 115.37a3.15 3.15 0 00-3.14 3.15v15.77c0 6.09-3.24 8.8-7.81 8.8s-7.8-2.84-7.8-8.8v-15.77a3.15 3.15 0 00-3.14-3.15 3.15 3.15 0 00-3.15 3.15v15.77c0 6-3.3 8.8-7.74 8.8s-7.81-2.71-7.81-8.8v-15.77a3.14 3.14 0 10-6.28 0v15.77c0 10 5.82 14.63 13.5 14.63 5.09 0 9.19-2.25 11.44-6.36h.13c2.25 4.11 6.42 6.36 11.45 6.36 7.68 0 13.5-4.64 13.5-14.63v-15.77a3.15 3.15 0 00-3.15-3.15zm28.55-.86c-10.32 0-17.6 7.28-17.6 17.2s7.28 17.21 17.6 17.21 17.6-7.28 17.6-17.21-7.28-17.2-17.6-17.2zm0 28.58c-6.75 0-11.25-4.76-11.25-11.38s4.5-11.38 11.25-11.38S150 125.1 150 131.71s-4.51 11.38-11.26 11.38zm71.91-9.09a2.32 2.32 0 002.32-2.32c0-9.92-7.15-17.2-17.47-17.2s-17.6 7.28-17.6 17.2 7.28 17.21 17.6 17.21c5.93 0 10.86-2.38 13.94-6.31a2.31 2.31 0 00-1.87-3.68h-1.8a2.25 2.25 0 00-1.73.78c-1.92 2.3-4.72 3.38-8.54 3.38-5.95 0-10.06-3.5-11-8.93V134zm-25.93-5.76c1.25-4.83 5.22-7.94 10.78-7.94s9.59 3.11 10.85 7.94v.14h-21.63z"/><path class="cls-1" d="M243.33 114.51c-5.56 0-9.92 2.52-12.17 6.42H231v-19.86c-.69-16.62-12.75-24-26.77-24a26.81 26.81 0 00-26.78 26.79 3 3 0 006.08 0 20.72 20.72 0 0120.7-20.7c11.42 0 20.48 6.37 20.48 17.78v30.55c0 10.52 7.15 17.47 17.47 17.47s17.6-7.28 17.6-17.21c.03-11.15-8.05-17.24-16.45-17.24zm-1.12 28.58c-6.69 0-11.18-4.76-11.18-11.38s4.49-11.38 11.18-11.38 11.24 4.77 11.24 11.38-4.45 11.38-11.24 11.38z"/><path class="cls-1" d="M216.2 144.43a3 3 0 00-3 3 20.73 20.73 0 01-20.7 20.7c-11.42 0-20.84-8.7-20.84-20.11v-47c0-14.77-12.24-26.35-27-26.35a26.82 26.82 0 00-26.79 26.79 3 3 0 006.09 0 20.7 20.7 0 1141.4 0V148c0 14.77 12.36 26.2 27.13 26.2a26.82 26.82 0 0026.79-26.79 3 3 0 00-3.08-2.98z"/></svg>