<svg id="Layer_1" data-name="Layer 1" xmlns="http://www.w3.org/2000/svg" viewBox="0 0 382.25 248.73"><defs><style>.cls-1{fill:#f48020}</style></defs><path class="cls-1" d="M124.66 116.5a4.24 4.24 0 00-4.24 4.24V142c0 8.22-4.38 11.88-10.54 11.88-6 0-10.54-3.84-10.54-11.88v-21.3a4.24 4.24 0 00-4.24-4.24 4.24 4.24 0 00-4.24 4.24V142c0 8-4.47 11.88-10.45 11.88-6.17 0-10.54-3.66-10.54-11.88v-21.3a4.25 4.25 0 00-8.49 0V142c0 13.49 7.86 19.74 18.22 19.74 6.88 0 12.42-3 15.45-8.58h.18c3 5.54 8.66 8.58 15.45 8.58 10.36 0 18.22-6.25 18.22-19.74v-21.3a4.24 4.24 0 00-4.24-4.2zm38.53-1.16c-13.93 0-23.76 9.82-23.76 23.22s9.83 23.22 23.76 23.22S187 152 187 138.56s-9.88-23.22-23.81-23.22zm0 38.58c-9.11 0-15.18-6.43-15.18-15.36s6.07-15.36 15.18-15.36 15.18 6.43 15.18 15.36-6.07 15.36-15.18 15.36zm97.07-12.24a3.13 3.13 0 003.13-3.12c0-13.4-9.65-23.22-23.58-23.22s-23.75 9.82-23.75 23.22 9.82 23.22 23.75 23.22c8 0 14.66-3.21 18.82-8.52a3.12 3.12 0 00-2.53-5h-2.42a3 3 0 00-2.34 1.06c-2.59 3.11-6.37 4.57-11.53 4.57-8 0-13.57-4.73-14.82-12.06v-.18zm-35-7.77c1.69-6.52 7.05-10.71 14.55-10.71s12.95 4.19 14.65 10.71v.18h-29.2z"/><path class="cls-1" d="M304.38 115.34c-7.5 0-13.4 3.39-16.43 8.66h-.18V97.21c-.93-22.44-17.2-32.47-36.13-32.47a36.2 36.2 0 00-36.16 36.16 4.11 4.11 0 108.21 0A28 28 0 01251.63 73c15.41 0 27.64 8.6 27.64 24v41.24c0 14.2 9.65 23.58 23.58 23.58s23.76-9.83 23.76-23.22c.01-15.05-10.89-23.26-22.23-23.26zm-1.52 38.58c-9 0-15.09-6.43-15.09-15.36s6.07-15.36 15.09-15.36S318 129.63 318 138.56s-6 15.36-15.14 15.36z"/><path class="cls-1" d="M267.76 155.72a4.11 4.11 0 00-4.11 4.11 28 28 0 01-27.94 27.94c-15.41 0-28.14-11.74-28.14-27.15V97.21c0-19.94-16.52-35.57-36.46-35.57A36.2 36.2 0 00135 97.79a4.11 4.11 0 108.22 0 27.95 27.95 0 0155.89 0 3 3 0 000 .31v62.52c0 19.93 16.68 35.37 36.62 35.37a36.2 36.2 0 0036.15-36.16 4.1 4.1 0 00-4.12-4.11z"/></svg>