<svg id="Layer_1" data-name="Layer 1" xmlns="http://www.w3.org/2000/svg" viewBox="0 0 313.82 174.25"><defs><style>.cls-1{fill:#f48020;}</style></defs><path class="cls-1" d="M44.66,139h0s-10.18,0-20.35-.1c-5.09,0-10.18-.06-14-.1l-4.64-.05c-1.69,0-5.65-.1-5.65-4,0-15.71,0-48.4,30.48-54.85,15.06-3.19,22.9,1.69,27.5,6,6.46-18.49,21.51-28.61,42.78-28.61a46.56,46.56,0,0,1,18.85,4A69.45,69.45,0,0,1,258,69.44V70.6a46.32,46.32,0,0,1,55.8,45.31c0,2.47-.33,16-1.2,19.75a4,4,0,0,1-3.86,3.07s-17.22,0-30.57.06h0a4,4,0,0,1,0-7.94c9.67,0,21.37,0,27.09,0,.37-4.45.62-11.87.62-14.89A38.36,38.36,0,0,0,255,79.65a4,4,0,0,1-5.24-4.15c.19-2,.3-4,.3-6.06a61.51,61.51,0,0,0-123-1.73A4,4,0,0,1,121,71a38.55,38.55,0,0,0-20.28-5.74c-19.25,0-31.45,8.88-36.25,26.4a5.77,5.77,0,0,1-4.18,4.06A5.68,5.68,0,0,1,54.81,94c-3.64-3.93-8.62-9.32-22.68-6.34C11.22,92.1,8.26,111.73,8,130.88c7.47.09,24.61.17,36.7.22a4,4,0,0,1,0,7.94Z"/><path class="cls-1" d="M110.19,115.37h0a3.15,3.15,0,0,0-3.14,3.15v15.77c0,6.09-3.24,8.8-7.81,8.8s-7.8-2.84-7.8-8.8V118.52a3.15,3.15,0,0,0-3.14-3.15h0a3.15,3.15,0,0,0-3.15,3.15v15.77c0,6-3.3,8.8-7.74,8.8s-7.81-2.71-7.81-8.8V118.52a3.14,3.14,0,1,0-6.28,0v15.77c0,10,5.82,14.63,13.5,14.63,5.09,0,9.19-2.25,11.44-6.36h.13c2.25,4.11,6.42,6.36,11.45,6.36,7.68,0,13.5-4.64,13.5-14.63V118.52A3.15,3.15,0,0,0,110.19,115.37Z"/><path class="cls-1" d="M138.74,114.51c-10.32,0-17.6,7.28-17.6,17.2s7.28,17.21,17.6,17.21,17.6-7.28,17.6-17.21S149.06,114.51,138.74,114.51Zm0,28.58c-6.75,0-11.25-4.76-11.25-11.38s4.5-11.38,11.25-11.38S150,125.1,150,131.71,145.49,143.09,138.74,143.09Z"/><path class="cls-1" d="M210.65,134a2.32,2.32,0,0,0,2.32-2.32c0-9.92-7.15-17.2-17.47-17.2s-17.6,7.28-17.6,17.2,7.28,17.21,17.6,17.21c5.93,0,10.86-2.38,13.94-6.31a2.31,2.31,0,0,0-1.87-3.68h-1.8a2.25,2.25,0,0,0-1.73.78c-1.92,2.3-4.72,3.38-8.54,3.38-5.95,0-10.06-3.5-11-8.93V134Zm-25.93-5.76c1.25-4.83,5.22-7.94,10.78-7.94s9.59,3.11,10.85,7.94v.14H184.72Z"/><path class="cls-1" d="M243.33,114.51c-5.56,0-9.92,2.52-12.17,6.42H231v-17s0-.08,0-.12c0-.89,0-1.76,0-2.6v-.14h0c-.69-16.62-12.75-24-26.77-24a26.81,26.81,0,0,0-26.78,26.79,3,3,0,0,0,6.08,0,20.72,20.72,0,0,1,20.7-20.7c11.42,0,20.48,6.37,20.48,17.78,0,.06,0,.12,0,.18h0v30.37c0,10.52,7.15,17.47,17.47,17.47s17.6-7.28,17.6-17.21C259.81,120.6,251.73,114.51,243.33,114.51Zm-1.12,28.58c-6.69,0-11.18-4.76-11.18-11.38s4.49-11.38,11.18-11.38,11.24,4.77,11.24,11.38S249,143.09,242.21,143.09Z"/><path class="cls-1" d="M216.2,144.43a3,3,0,0,0-3,3,20.73,20.73,0,0,1-20.7,20.7c-11.42,0-20.84-8.7-20.84-20.11v-47c0-14.77-12.24-26.35-27-26.35a26.82,26.82,0,0,0-26.79,26.79,3,3,0,0,0,6.09,0,20.7,20.7,0,1,1,41.4,0c0,.08,0,.15,0,.23v46.31c0,14.77,12.36,26.2,27.13,26.2a26.82,26.82,0,0,0,26.79-26.79A3,3,0,0,0,216.2,144.43Z"/></svg>